<svg width="18" height="18" viewBox="0 0 18 18" fill="none" xmlns="http://www.w3.org/2000/svg">
<path d="M1 18C0.716667 18 0.479167 17.9042 0.2875 17.7125C0.0958333 17.5208 0 17.2833 0 17C0 16.7167 0.0958333 16.4792 0.2875 16.2875C0.479167 16.0958 0.716667 16 1 16H2V10H1C0.716667 10 0.479167 9.90417 0.2875 9.7125C0.0958333 9.52083 0 9.28333 0 9C0 8.71667 0.0958333 8.47917 0.2875 8.2875C0.479167 8.09583 0.716667 8 1 8H2V2H1C0.716667 2 0.479167 1.90417 0.2875 1.7125C0.0958333 1.52083 0 1.28333 0 1C0 0.716667 0.0958333 0.479167 0.2875 0.2875C0.479167 0.0958333 0.716667 0 1 0H17C17.2833 0 17.5208 0.0958333 17.7125 0.2875C17.9042 0.479167 18 0.716667 18 1C18 1.28333 17.9042 1.52083 17.7125 1.7125C17.5208 1.90417 17.2833 2 17 2H16V8H17C17.2833 8 17.5208 8.09583 17.7125 8.2875C17.9042 8.47917 18 8.71667 18 9C18 9.28333 17.9042 9.52083 17.7125 9.7125C17.5208 9.90417 17.2833 10 17 10H16V16H17C17.2833 16 17.5208 16.0958 17.7125 16.2875C17.9042 16.4792 18 16.7167 18 17C18 17.2833 17.9042 17.5208 17.7125 17.7125C17.5208 17.9042 17.2833 18 17 18H1ZM4 16H14V10C13.7167 10 13.4792 9.90417 13.2875 9.7125C13.0958 9.52083 13 9.28333 13 9C13 8.71667 13.0958 8.47917 13.2875 8.2875C13.4792 8.09583 13.7167 8 14 8V2H4V8C4.28333 8 4.52083 8.09583 4.7125 8.2875C4.90417 8.47917 5 8.71667 5 9C5 9.28333 4.90417 9.52083 4.7125 9.7125C4.52083 9.90417 4.28333 10 4 10V16ZM9 13C9.83333 13 10.5417 12.7125 11.125 12.1375C11.7083 11.5625 12 10.8667 12 10.05C12 9.4 11.8125 8.84167 11.4375 8.375C11.0625 7.90833 10.25 6.95 9 5.5C7.75 6.93333 6.9375 7.8875 6.5625 8.3625C6.1875 8.8375 6 9.4 6 10.05C6 10.8667 6.29167 11.5625 6.875 12.1375C7.45833 12.7125 8.16667 13 9 13ZM4 16V2V16Z" fill="#BB0027"/>
</svg>
