<svg width="23" height="25" viewBox="0 0 23 25" fill="none" xmlns="http://www.w3.org/2000/svg">
<g opacity="0.3">
<path d="M2.6875 22.3125C1.83333 21.3125 1.17188 20.1927 0.703125 18.9531C0.234375 17.7135 0 16.3958 0 15C0 11.875 1.09375 9.21875 3.28125 7.03125C5.46875 4.84375 8.125 3.75 11.25 3.75C11.2917 3.75 11.3333 3.75 11.375 3.75C11.4167 3.75 11.4583 3.75 11.5 3.75L9.5 1.75L11.25 0L16.25 5L11.25 10L9.46875 8.21875L11.4375 6.25C11.3958 6.25 11.3646 6.25 11.3438 6.25C11.3229 6.25 11.2917 6.25 11.25 6.25C8.83333 6.25 6.77083 7.10417 5.0625 8.8125C3.35417 10.5208 2.5 12.5833 2.5 15C2.5 16.0625 2.67188 17.0625 3.01562 18C3.35938 18.9375 3.84375 19.7812 4.46875 20.5312L2.6875 22.3125V22.3125M10 21.875C10 21.3958 9.83854 20.9219 9.51562 20.4531C9.19271 19.9844 8.83333 19.4948 8.4375 18.9844C8.04167 18.474 7.68229 17.9427 7.35938 17.3906C7.03646 16.8385 6.875 16.25 6.875 15.625C6.875 14.4167 7.30208 13.3854 8.15625 12.5312C9.01042 11.6771 10.0417 11.25 11.25 11.25C12.4583 11.25 13.4896 11.6771 14.3438 12.5312C15.1979 13.3854 15.625 14.4167 15.625 15.625C15.625 16.25 15.4635 16.8385 15.1406 17.3906C14.8177 17.9427 14.4583 18.474 14.0625 18.9844C13.6667 19.4948 13.3073 19.9844 12.9844 20.4531C12.6615 20.9219 12.5 21.3958 12.5 21.875H10V21.875M10 25V23.125H12.5V25H10V25M19.8125 22.3125L18.0312 20.5312C18.6562 19.7812 19.1406 18.9375 19.4844 18C19.8281 17.0625 20 16.0625 20 15C20 13.625 19.7135 12.349 19.1406 11.1719C18.5677 9.99479 17.7812 9.01042 16.7812 8.21875L18.5625 6.4375C19.7708 7.47917 20.7292 8.73438 21.4375 10.2031C22.1458 11.6719 22.5 13.2708 22.5 15C22.5 16.3958 22.2656 17.7135 21.7969 18.9531C21.3281 20.1927 20.6667 21.3125 19.8125 22.3125V22.3125" fill="#8295DC"/>
</g>
</svg>
